<svg width="483" height="536" viewBox="0 0 483 536" fill="none" xmlns="http://www.w3.org/2000/svg">
<g clip-path="url(#clip0_1_2)">
<mask id="path-1-outside-1_1_2" maskUnits="userSpaceOnUse" x="-2" y="118.085" width="398" height="420" fill="black">
<rect fill="white" x="-2" y="118.085" width="398" height="420"/>
<path d="M152.016 136.081H15.9961V429.01C15.9961 452.204 17.0625 470.4 19.1953 483.597C21.3281 496.793 24.9278 506.125 29.9932 511.59C35.1919 517.188 42.1906 519.987 50.9883 519.987C63.2515 519.987 72.649 515.055 79.1807 505.191C85.7123 495.327 89.3789 480.93 90.1787 462.002H333.519V330H349.515V462.002H385.307C391.038 472.799 393.904 482.996 393.904 492.594C393.904 505.124 388.906 515.456 378.908 523.587C368.911 531.852 356.247 535.983 340.917 535.983H48.9883V535.951C37.2605 535.602 27.8625 532.149 20.7949 525.586C13.3301 518.788 7.99803 507.523 4.79883 491.794C1.59966 476.198 9.91497e-06 455.27 0 429.01V120.085H152.016V136.081ZM104.774 477.998C102.308 496.038 96.6827 510.034 87.8984 519.987H340.917C351.714 519.987 360.579 517.388 367.511 512.189C374.442 507.124 377.908 500.592 377.908 492.594C377.908 488.062 376.909 483.196 374.909 477.998H104.774ZM168.959 412.014H82.1807V396.018H168.959V412.014ZM269.734 363.226H82.1807V347.229H269.734V363.226ZM152.016 314.638H82.1807V298.642H152.016V314.638ZM152.016 265.85H82.1807V249.854H152.016V265.85ZM152.016 217.262H82.1807V201.266H152.016V217.262Z"/>
</mask>
<path d="M152.016 136.081H15.9961V429.01C15.9961 452.204 17.0625 470.4 19.1953 483.597C21.3281 496.793 24.9278 506.125 29.9932 511.59C35.1919 517.188 42.1906 519.987 50.9883 519.987C63.2515 519.987 72.649 515.055 79.1807 505.191C85.7123 495.327 89.3789 480.93 90.1787 462.002H333.519V330H349.515V462.002H385.307C391.038 472.799 393.904 482.996 393.904 492.594C393.904 505.124 388.906 515.456 378.908 523.587C368.911 531.852 356.247 535.983 340.917 535.983H48.9883V535.951C37.2605 535.602 27.8625 532.149 20.7949 525.586C13.3301 518.788 7.99803 507.523 4.79883 491.794C1.59966 476.198 9.91497e-06 455.27 0 429.01V120.085H152.016V136.081ZM104.774 477.998C102.308 496.038 96.6827 510.034 87.8984 519.987H340.917C351.714 519.987 360.579 517.388 367.511 512.189C374.442 507.124 377.908 500.592 377.908 492.594C377.908 488.062 376.909 483.196 374.909 477.998H104.774ZM168.959 412.014H82.1807V396.018H168.959V412.014ZM269.734 363.226H82.1807V347.229H269.734V363.226ZM152.016 314.638H82.1807V298.642H152.016V314.638ZM152.016 265.85H82.1807V249.854H152.016V265.85ZM152.016 217.262H82.1807V201.266H152.016V217.262Z" fill="black"/>
<path d="M152.016 136.081V138.081H154.016V136.081H152.016ZM15.9961 136.081V134.081H13.9961V136.081H15.9961ZM15.9961 429.01H13.9961V429.01H15.9961ZM19.1953 483.597L17.2209 483.916V483.916L19.1953 483.597ZM29.9932 511.59L28.5263 512.949L28.5276 512.951L29.9932 511.59ZM50.9883 519.987V521.987H50.9883L50.9883 519.987ZM79.1807 505.191L80.8482 506.296L80.8482 506.296L79.1807 505.191ZM90.1787 462.002V460.002H88.2614L88.1805 461.918L90.1787 462.002ZM333.519 462.002V464.002H335.519V462.002H333.519ZM333.519 330V328H331.519V330H333.519ZM349.515 330H351.515V328H349.515V330ZM349.515 462.002H347.515V464.002H349.515V462.002ZM385.307 462.002L387.073 461.064L386.509 460.002H385.307V462.002ZM393.904 492.594H395.904V492.594H393.904ZM378.908 523.587L377.646 522.035L377.64 522.04L377.634 522.045L378.908 523.587ZM48.9883 535.983H46.9883V537.983H48.9883V535.983ZM48.9883 535.951H50.9883V534.01L49.0478 533.952L48.9883 535.951ZM20.7949 525.586L22.1558 524.12L22.1487 524.114L22.1416 524.107L20.7949 525.586ZM4.79883 491.794L6.7587 491.395L6.75803 491.392L4.79883 491.794ZM0 429.01H-2V429.01H0ZM0 120.085V118.085H-2V120.085H0ZM152.016 120.085H154.016V118.085H152.016V120.085ZM104.774 477.998V475.998H103.029L102.793 477.727L104.774 477.998ZM87.8984 519.987L86.3989 518.664L83.4657 521.987H87.8984V519.987ZM367.511 512.189L366.331 510.575L366.321 510.582L366.311 510.589L367.511 512.189ZM377.908 492.594H379.908V492.594L377.908 492.594ZM374.909 477.998L376.776 477.28L376.283 475.998H374.909V477.998ZM168.959 412.014V414.014H170.959V412.014H168.959ZM82.1807 412.014H80.1807V414.014H82.1807V412.014ZM82.1807 396.018V394.018H80.1807V396.018H82.1807ZM168.959 396.018H170.959V394.018H168.959V396.018ZM269.734 363.226V365.226H271.734V363.226H269.734ZM82.1807 363.226H80.1807V365.226H82.1807V363.226ZM82.1807 347.229V345.229H80.1807V347.229H82.1807ZM269.734 347.229H271.734V345.229H269.734V347.229ZM152.016 314.638V316.638H154.016V314.638H152.016ZM82.1807 314.638H80.1807V316.638H82.1807V314.638ZM82.1807 298.642V296.642H80.1807V298.642H82.1807ZM152.016 298.642H154.016V296.642H152.016V298.642ZM152.016 265.85V267.85H154.016V265.85H152.016ZM82.1807 265.85H80.1807V267.85H82.1807V265.85ZM82.1807 249.854V247.854H80.1807V249.854H82.1807ZM152.016 249.854H154.016V247.854H152.016V249.854ZM152.016 217.262V219.262H154.016V217.262H152.016ZM82.1807 217.262H80.1807V219.262H82.1807V217.262ZM82.1807 201.266V199.266H80.1807V201.266H82.1807ZM152.016 201.266H154.016V199.266H152.016V201.266ZM152.016 136.081V134.081H15.9961V136.081V138.081H152.016V136.081ZM15.9961 136.081H13.9961V429.01H15.9961H17.9961V136.081H15.9961ZM15.9961 429.01H13.9961C13.9961 452.245 15.0631 470.564 17.2209 483.916L19.1953 483.597L21.1697 483.278C19.0619 470.236 17.9961 452.163 17.9961 429.01H15.9961ZM19.1953 483.597L17.2209 483.916C19.3732 497.233 23.0538 507.045 28.5263 512.949L29.9932 511.59L31.46 510.23C26.8018 505.204 23.283 496.354 21.1697 483.278L19.1953 483.597ZM29.9932 511.59L28.5276 512.951C34.1634 519.02 41.727 521.987 50.9883 521.987V519.987V517.987C42.6542 517.987 36.2203 515.357 31.4587 510.229L29.9932 511.59ZM50.9883 519.987L50.9883 521.987C63.893 521.987 73.9302 516.743 80.8482 506.296L79.1807 505.191L77.5131 504.087C71.3679 513.367 62.6101 517.987 50.9883 517.987L50.9883 519.987ZM79.1807 505.191L80.8482 506.296C87.6676 495.997 91.3701 481.181 92.1769 462.086L90.1787 462.002L88.1805 461.918C87.3877 480.68 83.7571 494.658 77.5131 504.087L79.1807 505.191ZM90.1787 462.002V464.002H333.519V462.002V460.002H90.1787V462.002ZM333.519 462.002H335.519V330H333.519H331.519V462.002H333.519ZM333.519 330V332H349.515V330V328H333.519V330ZM349.515 330H347.515V462.002H349.515H351.515V330H349.515ZM349.515 462.002V464.002H385.307V462.002V460.002H349.515V462.002ZM385.307 462.002L383.54 462.94C389.159 473.525 391.904 483.401 391.904 492.594H393.904H395.904C395.904 482.592 392.917 472.073 387.073 461.064L385.307 462.002ZM393.904 492.594H391.904C391.904 504.503 387.192 514.271 377.646 522.035L378.908 523.587L380.17 525.139C390.619 516.64 395.904 505.745 395.904 492.594H393.904ZM378.908 523.587L377.634 522.045C368.058 529.962 355.87 533.983 340.917 533.983V535.983V537.983C356.623 537.983 369.764 533.741 380.182 525.128L378.908 523.587ZM340.917 535.983V533.983H48.9883V535.983V537.983H340.917V535.983ZM48.9883 535.983H50.9883V535.951H48.9883H46.9883V535.983H48.9883ZM48.9883 535.951L49.0478 533.952C37.6942 533.614 28.7955 530.286 22.1558 524.12L20.7949 525.586L19.434 527.052C26.9296 534.012 36.8268 537.59 48.9287 537.95L48.9883 535.951ZM20.7949 525.586L22.1416 524.107C15.127 517.719 9.91949 506.936 6.7587 491.395L4.79883 491.794L2.83895 492.193C6.07656 508.111 11.5333 519.856 19.4483 527.065L20.7949 525.586ZM4.79883 491.794L6.75803 491.392C3.59774 475.986 2.00001 455.21 2 429.01H0H-2C-1.99999 455.33 -0.398429 476.41 2.83962 492.196L4.79883 491.794ZM0 429.01H2V120.085H0H-2V429.01H0ZM0 120.085V122.085H152.016V120.085V118.085H0V120.085ZM152.016 120.085H150.016V136.081H152.016H154.016V120.085H152.016ZM104.774 477.998L102.793 477.727C100.361 495.518 94.8419 509.098 86.3989 518.664L87.8984 519.987L89.3979 521.311C98.5236 510.971 104.256 496.559 106.756 478.269L104.774 477.998ZM87.8984 519.987V521.987H340.917V519.987V517.987H87.8984V519.987ZM340.917 519.987V521.987C352.039 521.987 361.355 519.306 368.711 513.789L367.511 512.189L366.311 510.589C359.803 515.47 351.39 517.987 340.917 517.987V519.987ZM367.511 512.189L368.691 513.804C376.094 508.394 379.908 501.283 379.908 492.594H377.908H375.908C375.908 499.901 372.791 505.854 366.331 510.575L367.511 512.189ZM377.908 492.594L379.908 492.594C379.908 487.767 378.844 482.657 376.776 477.28L374.909 477.998L373.042 478.716C374.973 483.736 375.908 488.356 375.908 492.594L377.908 492.594ZM374.909 477.998V475.998H104.774V477.998V479.998H374.909V477.998ZM168.959 412.014V410.014H82.1807V412.014V414.014H168.959V412.014ZM82.1807 412.014H84.1807V396.018H82.1807H80.1807V412.014H82.1807ZM82.1807 396.018V398.018H168.959V396.018V394.018H82.1807V396.018ZM168.959 396.018H166.959V412.014H168.959H170.959V396.018H168.959ZM269.734 363.226V361.226H82.1807V363.226V365.226H269.734V363.226ZM82.1807 363.226H84.1807V347.229H82.1807H80.1807V363.226H82.1807ZM82.1807 347.229V349.229H269.734V347.229V345.229H82.1807V347.229ZM269.734 347.229H267.734V363.226H269.734H271.734V347.229H269.734ZM152.016 314.638V312.638H82.1807V314.638V316.638H152.016V314.638ZM82.1807 314.638H84.1807V298.642H82.1807H80.1807V314.638H82.1807ZM82.1807 298.642V300.642H152.016V298.642V296.642H82.1807V298.642ZM152.016 298.642H150.016V314.638H152.016H154.016V298.642H152.016ZM152.016 265.85V263.85H82.1807V265.85V267.85H152.016V265.85ZM82.1807 265.85H84.1807V249.854H82.1807H80.1807V265.85H82.1807ZM82.1807 249.854V251.854H152.016V249.854V247.854H82.1807V249.854ZM152.016 249.854H150.016V265.85H152.016H154.016V249.854H152.016ZM152.016 217.262V215.262H82.1807V217.262V219.262H152.016V217.262ZM82.1807 217.262H84.1807V201.266H82.1807H80.1807V217.262H82.1807ZM82.1807 201.266V203.266H152.016V201.266V199.266H82.1807V201.266ZM152.016 201.266H150.016V217.262H152.016H154.016V201.266H152.016Z" fill="black" mask="url(#path-1-outside-1_1_2)"/>
<path d="M205.016 214.5V277H267.516V293H189.016V214.5H205.016ZM483.016 214.5V293H404.516V277H467.016V214.5H483.016ZM267.516 -1V15H205.016V77.5H189.016V-1H267.516ZM483.016 -1V77.5H467.016V15H404.516V-1H483.016Z" fill="black" stroke="black" stroke-width="2"/>
<path d="M423.016 185.057V203H249.016V185.057H423.016ZM423.016 136.429V154.372H249.016V136.429H423.016ZM423.016 88V105.943H249.016V88H423.016Z" fill="black" stroke="black" stroke-width="2"/>
</g>
<defs>
<clipPath id="clip0_1_2">
<rect width="483" height="536" fill="white"/>
</clipPath>
</defs>
</svg>
